<?xml version="1.0" standalone="no"?>
<!DOCTYPE svg PUBLIC "-//W3C//DTD SVG 20010904//EN"
 "http://www.w3.org/TR/2001/REC-SVG-20010904/DTD/svg10.dtd">
<svg version="1.0" xmlns="http://www.w3.org/2000/svg"
 width="580.000000pt" height="580.000000pt" viewBox="0 0 580.000000 580.000000"
 preserveAspectRatio="xMidYMid meet">
<metadata>
Created by potrace 1.14, written by Peter Selinger 2001-2017
</metadata>
<g transform="translate(0.000000,580.000000) scale(0.100000,-0.100000)"
fill="#000000" stroke="none">
<path d="M2280 5790 c-115 -24 -223 -108 -274 -213 l-28 -57 -614 0 -614 0 0
-2310 0 -2310 760 0 760 0 0 820 0 820 638 -2 637 -3 3 -817 2 -818 440 0 440
0 0 1393 1 1392 48 24 c71 34 139 104 175 180 28 60 31 75 31 161 0 82 -4 103
-27 153 -35 74 -121 160 -195 195 -50 23 -71 26 -153 27 -88 0 -100 -3 -164
-34 -198 -97 -273 -317 -175 -518 34 -72 107 -142 174 -169 l45 -19 -3 -1270
-2 -1270 -197 -3 -198 -2 -2 817 -3 818 -877 3 -878 2 0 -820 0 -820 -517 2
-518 3 -3 2068 -2 2067 492 0 493 0 29 -62 c104 -224 391 -293 595 -143 104
76 161 190 161 320 0 168 -101 316 -254 374 -66 24 -164 33 -226 21z m150
-252 c59 -31 82 -66 87 -130 9 -122 -100 -206 -213 -163 -67 26 -99 73 -99
149 0 74 24 113 87 145 55 27 83 26 138 -1z m1948 -1368 c116 -71 85 -232 -51
-264 -40 -10 -112 25 -137 66 -26 42 -26 113 -1 154 37 60 127 81 189 44z"/>
<path d="M1380 3501 l0 -1378 -28 -6 c-45 -9 -140 -87 -182 -149 -110 -166
-66 -401 98 -516 197 -138 463 -68 566 148 28 59 31 74 31 160 0 86 -3 101
-31 161 -35 74 -103 145 -170 178 l-44 22 0 1260 0 1259 200 0 200 0 0 -815 0
-815 880 0 880 0 0 815 0 815 520 0 520 0 -2 -2067 -3 -2068 -492 -3 -492 -2
-26 52 c-108 216 -379 281 -572 137 -130 -98 -184 -268 -132 -421 38 -113 102
-183 216 -235 80 -37 190 -38 283 -3 78 29 173 117 208 193 l22 47 615 0 615
0 0 2305 0 2305 -760 0 -760 0 0 -815 0 -815 -640 0 -640 0 0 815 0 815 -440
0 -440 0 0 -1379z m187 -1623 c116 -71 60 -258 -76 -258 -140 0 -197 178 -82
256 46 31 110 32 158 2z m1963 -1369 c128 -72 78 -265 -69 -263 -150 2 -195
195 -61 265 45 25 84 24 130 -2z"/>
</g>
</svg>
